<svg id="Layer_1" data-name="Layer 1" xmlns="http://www.w3.org/2000/svg" xmlns:xlink="http://www.w3.org/1999/xlink" viewBox="0 0 1000 1000"><defs><style>.cls-1{fill:#25a9e0;}.cls-2{fill:url(#linear-gradient);}.cls-3{fill:url(#linear-gradient-2);}.cls-4{fill:url(#linear-gradient-3);}.cls-5{fill:url(#linear-gradient-4);}.cls-6{fill:url(#linear-gradient-5);}.cls-7{fill:url(#linear-gradient-6);}.cls-8{fill:url(#linear-gradient-7);}.cls-9{fill:url(#linear-gradient-8);}.cls-10{fill:url(#linear-gradient-9);}.cls-11{fill:url(#linear-gradient-10);}.cls-12{fill:url(#linear-gradient-11);}</style><linearGradient id="linear-gradient" x1="67.58" y1="473.24" x2="67.58" y2="537.35" gradientUnits="userSpaceOnUse"><stop offset="0" stop-color="#fff"/><stop offset="0.99" stop-color="#fff" stop-opacity="0"/></linearGradient><linearGradient id="linear-gradient-2" x1="178.73" y1="473.24" x2="178.73" y2="537.35" xlink:href="#linear-gradient"/><linearGradient id="linear-gradient-3" x1="218.05" y1="473.24" x2="218.05" y2="537.35" xlink:href="#linear-gradient"/><linearGradient id="linear-gradient-4" x1="354.03" y1="473.24" x2="354.03" y2="537.35" xlink:href="#linear-gradient"/><linearGradient id="linear-gradient-5" x1="514.04" y1="473.24" x2="514.04" y2="537.4" xlink:href="#linear-gradient"/><linearGradient id="linear-gradient-6" x1="478.49" y1="473.24" x2="478.49" y2="537.35" xlink:href="#linear-gradient"/><linearGradient id="linear-gradient-7" x1="559.03" y1="473.24" x2="559.03" y2="537.35" xlink:href="#linear-gradient"/><linearGradient id="linear-gradient-8" x1="649.34" y1="473.24" x2="649.34" y2="537.35" xlink:href="#linear-gradient"/><linearGradient id="linear-gradient-9" x1="702.08" y1="473.24" x2="702.08" y2="537.35" xlink:href="#linear-gradient"/><linearGradient id="linear-gradient-10" x1="787.7" y1="473.24" x2="787.7" y2="537.35" xlink:href="#linear-gradient"/><linearGradient id="linear-gradient-11" x1="884.37" y1="473.24" x2="884.37" y2="537.35" xlink:href="#linear-gradient"/></defs><circle cx="216.52" cy="407.23" r="28.71"/><path class="cls-1" d="M193.62,509.51c-.9-24.73-7.54-38.57-14.61-47.12a23.49,23.49,0,0,0-18.15-8.34h-45a23.91,23.91,0,0,0-17.32,7.43L82.26,473V343.48H52.9V603.8H82.26V497l20.39-16h47c4.85,3.83,12.06,9.16,14.11,28.5a105.9,105.9,0,0,1,.57,11.65V603.8h29.36v-86C193.72,514.93,193.69,512.16,193.62,509.51Z"/><path class="cls-1" d="M251.85,457l-8.35,8.46a9.79,9.79,0,0,1-16.4-4.23h0a9.81,9.81,0,0,0-9.43-7.14H213a9.79,9.79,0,0,0-9.79,9.8V603.8h29.64V500.48L251.73,481h29.52V463.85a9.8,9.8,0,0,0-9.8-9.8H258.82A9.81,9.81,0,0,0,251.85,457Z"/><path d="M416.73,546c.26-12.41-1.53-25.05-6.63-36.47a62.59,62.59,0,0,0-16.44-22.25,12.21,12.21,0,0,0-8-3h-61.8a12,12,0,0,0-7.19,2.38,60.83,60.83,0,0,0-18.61,22.89c-4,8.68-6.79,19.66-6.79,33.54a73,73,0,0,0,6.38,30.57c9.83,21.37,30.66,35.73,59.77,35.57,16.81,0,31.94-2.45,51.72-16.11l-10.24-17.81c-15.38,9-28.08,11.72-42,11.46-10.31-.13-22.82-3.7-31.24-13.11-4.76-5.27-8.2-12.39-9.26-21.77h99.81A37.58,37.58,0,0,0,416.73,546Zm-101-8.77c.57-13.63,6-22.12,11.58-27.7a41.32,41.32,0,0,1,4.28-3.8h46.36c1.21,1,2.65,2.27,4.15,3.8,5,5.1,10.85,13.43,11.23,27.7Z"/><path d="M492.42,540.62c-15.6-5.62-33.66-8.81-38.29-21.25-.76-4.24-.76-7.28-.13-9.86a15.87,15.87,0,0,1,2.08-4.76h47.83v11.94h20.26v-20.5a12,12,0,0,0-11.95-11.95H447.87a11.83,11.83,0,0,0-9.65,4.87,42.08,42.08,0,0,0-7.48,20.4,46.47,46.47,0,0,0-.29,5.23c.23,17.33,11.72,26.36,30.25,35.13,21.07,10.53,42.6,12.16,42.92,23.75a4.93,4.93,0,0,1,0,.67c-.47,12.22-15.12,14.16-29.29,14.16a78.68,78.68,0,0,1-36.09-9.76L430.68,598c11.23,6.58,26.87,11.46,46.62,11.46,27.82,0,46.62-8,49-31.72.13-1.4.19-2.78.19-4.08C526.34,554.69,510.23,547,492.42,540.62Z"/><path d="M569,484.24a11.86,11.86,0,0,0-8.5,3.53,60.74,60.74,0,0,0-13.64,21.74c-3.22,8.58-5.52,19.72-5.62,34.27a72.94,72.94,0,0,0,5.84,29.84c9.26,21.31,29.17,35.32,55.91,35.32,11.71,0,23.68-1.69,35.87-9.51v57.09h23.93V496.19a12,12,0,0,0-11.95-11.95Zm69.86,86.15c-1,1.15-2,2.24-3,3.23-9.06,9.12-18.51,11.9-31.94,11.9-11.59,0-21.51-4.21-28.31-11.9-6.09-6.9-9.73-16.5-10-28.37-.41-19,5.68-29.71,11.17-35.74a36.66,36.66,0,0,1,4-3.8h58.08Z"/><path d="M788.75,484.24a12,12,0,0,0-12,11.95v75.67c-.7.61-1.4,1.18-2.14,1.76a57.35,57.35,0,0,1-34.46,11.9c-11.33,0-19.21-4-23.77-11.9q-4.78-8.34-4.79-22.5V496.19a12,12,0,0,0-11.95-11.95h0a12,12,0,0,0-12,11.95V553.8a84.21,84.21,0,0,0,2.17,19.82c5.55,23,21.67,35.8,46.88,35.8,17.32,0,31-7,43.93-15.61l.74-.47,8,13.17h11.23V496.19a12,12,0,0,0-12-11.95Z"/><path d="M940.46,509.51A62.56,62.56,0,0,0,924,487.25a12.23,12.23,0,0,0-8-3H854.26a11.94,11.94,0,0,0-7.19,2.38,60.77,60.77,0,0,0-18.64,22.89c-4,8.68-6.8,19.66-6.8,33.54a72.43,72.43,0,0,0,6.42,30.57c9.82,21.37,30.63,35.73,59.73,35.57,16.85,0,32-2.45,51.73-16.11l-10.25-17.81c-15.38,9-28.08,11.72-42,11.46C877,586.6,864.45,583,856,573.62c-4.75-5.27-8.2-12.39-9.25-21.77h99.81a37.58,37.58,0,0,0,.48-5.87C947.36,533.57,945.57,521,940.46,509.51ZM846,537.21c.58-13.63,6-22.12,11.59-27.7a41.26,41.26,0,0,1,4.27-3.8h46.37c1.21,1,2.65,2.27,4.14,3.8,5,5.1,10.85,13.43,11.24,27.7Z"/><rect class="cls-2" x="52.9" y="509.51" width="29.36" height="64.11"/><path class="cls-3" d="M193.62,509.51c.07,2.65.1,5.42.07,8.33v55.78H164.33V521.16a105.9,105.9,0,0,0-.57-11.65Z"/><rect class="cls-4" x="203.23" y="509.51" width="29.64" height="64.11"/><path class="cls-5" d="M416.25,551.85H316.44c1.06,9.38,4.5,16.5,9.26,21.77h-28a73,73,0,0,1-6.38-30.57c0-13.88,2.74-24.86,6.79-33.54h29.2c-5.61,5.58-11,14.07-11.58,27.7h77.6c-.38-14.27-6.22-22.6-11.23-27.7h28c5.1,11.42,6.89,24.06,6.63,36.47A37.58,37.58,0,0,1,416.25,551.85Z"/><rect class="cls-6" x="503.91" y="509.51" width="20.26" height="7.18"/><path class="cls-7" d="M526.53,573.62H503.62c-.32-11.59-21.85-13.22-42.92-23.75-18.53-8.77-30-17.8-30.25-35.13a46.47,46.47,0,0,1,.29-5.23H454c-.63,2.58-.63,5.62.13,9.86,4.63,12.44,22.69,15.63,38.29,21.25C510.23,547,526.34,554.69,526.53,573.62Z"/><path class="cls-8" d="M576.82,509.51c-5.49,6-11.58,16.72-11.17,35.74.26,11.87,3.9,21.47,10,28.37H547.08a72.94,72.94,0,0,1-5.84-29.84c.1-14.55,2.4-25.69,5.62-34.27Z"/><path class="cls-9" d="M638.86,509.51h23.93v64.11h-26.9c1-1,2-2.08,3-3.23Z"/><path class="cls-10" d="M711.64,551.12q0,14.16,4.79,22.5H689.91a84.21,84.21,0,0,1-2.17-19.82V509.51h23.9Z"/><path class="cls-11" d="M776.8,509.51h23.93v64.11H774.66c.74-.58,1.44-1.15,2.14-1.76Z"/><path class="cls-12" d="M947.07,546a37.58,37.58,0,0,1-.48,5.87H846.78c1.05,9.38,4.5,16.5,9.25,21.77h-28a72.43,72.43,0,0,1-6.42-30.57c0-13.88,2.75-24.86,6.8-33.54h29.2c-5.62,5.58-11,14.07-11.59,27.7h77.61c-.39-14.27-6.23-22.6-11.24-27.7h28.05C945.57,521,947.36,533.57,947.07,546Z"/></svg>